<svg width="800" height="500" viewBox="0 0 800 500" fill="none" xmlns="http://www.w3.org/2000/svg">
<g clip-path="url(#clip0_639_6232)">
<path d="M800 0H0V500H800V0Z" fill="white"/>
<g clip-path="url(#clip1_639_6232)">
<path d="M241.535 188.696L246.247 195.203L250.958 188.696L251.144 188.439H256.493L255.78 189.426L248.925 198.902L255.778 208.367L256.492 209.354H251.128L250.942 209.097L246.247 202.605L241.551 209.097L241.365 209.354H236.001L236.715 208.367L243.568 198.902L236.713 189.426L236 188.439H241.349L241.535 188.696Z" fill="#0055E0"/>
<path d="M421.743 179.389L425.447 179.414L426.597 179.421L425.959 180.379L416.666 194.36L425.961 208.332L426.599 209.291L425.449 209.298L421.73 209.322L421.395 209.325L421.209 209.046L414.057 198.285L406.905 209.046L406.719 209.325L406.385 209.322L402.666 209.298L401.516 209.291L402.154 208.332L411.447 194.36L402.155 180.379L401.518 179.421L402.667 179.414L406.372 179.389L406.706 179.387L406.892 179.666L414.057 190.437L421.223 179.666L421.407 179.387L421.743 179.389Z" fill="#0055E0"/>
<path d="M301.427 188.457C307.06 188.601 311.584 193.223 311.584 198.904L311.581 199.174C311.441 204.731 306.971 209.21 301.427 209.351L301.157 209.354C295.489 209.354 290.877 204.821 290.734 199.174L290.73 198.904C290.731 193.133 295.399 188.454 301.157 188.454L301.427 188.457ZM301.157 192.82C297.805 192.82 295.087 195.544 295.087 198.904C295.087 202.264 297.805 204.988 301.157 204.988C304.51 204.988 307.228 202.264 307.228 198.904C307.228 195.544 304.51 192.82 301.157 192.82Z" fill="#0055E0"/>
<path d="M287.344 209.325H282.979V207.399C281.338 208.577 279.343 209.289 277.184 209.344L276.915 209.348C271.247 209.347 266.634 204.814 266.492 199.167L266.488 198.897C266.488 193.126 271.157 188.447 276.915 188.447L277.184 188.451C279.343 188.505 281.338 189.218 282.979 190.396V188.447H287.344V209.325ZM276.915 192.813C273.563 192.814 270.845 195.537 270.845 198.897C270.845 202.258 273.563 204.981 276.915 204.981C280.181 204.981 282.843 202.397 282.979 199.158V198.628C282.838 195.393 280.178 192.813 276.915 192.813Z" fill="#0055E0"/>
<path d="M370.441 209.325H366.077V207.399C364.368 208.625 362.275 209.347 360.014 209.348C354.345 209.348 349.733 204.814 349.59 199.167L349.586 198.897C349.586 193.126 354.255 188.447 360.014 188.447C362.275 188.447 364.368 189.169 366.077 190.395V188.447H370.441V209.325ZM360.014 192.813C356.661 192.813 353.943 195.537 353.943 198.897C353.943 202.258 356.661 204.981 360.014 204.981L360.326 204.974C363.433 204.816 365.924 202.316 366.077 199.201V198.594C365.924 195.479 363.433 192.979 360.326 192.821L360.014 192.813Z" fill="#0055E0"/>
<path d="M319.471 189.695C320.797 188.907 322.344 188.454 323.996 188.454L324.225 188.458C326.812 188.523 329.122 189.699 330.705 191.525C332.333 189.645 334.734 188.454 337.414 188.454C342.32 188.454 346.296 192.441 346.296 197.358V209.311H341.939V197.373C341.939 194.867 339.913 192.836 337.413 192.836C334.913 192.836 332.886 194.867 332.886 197.373V209.311H328.523V197.373C328.522 194.946 326.621 192.963 324.229 192.841L323.996 192.836C321.522 192.836 319.513 194.825 319.471 197.294V209.311H319.469L315.113 209.311L315.105 209.311V188.433H319.471V189.695Z" fill="#0055E0"/>
<path d="M389.177 179.009C394.339 179.205 398.775 182.401 401.102 187.001L401.427 187.643L397.273 189.035L397.023 188.581C395.331 185.504 392.371 183.461 389.011 183.337L388.684 183.33C383.328 183.33 378.868 188.237 378.868 194.444C378.868 200.651 383.328 205.557 388.684 205.557L389.058 205.549C392.903 205.385 396.223 202.706 397.697 198.85L397.911 198.291L402.023 199.691L401.795 200.292C399.72 205.799 394.786 209.747 388.954 209.87L388.675 209.873C380.918 209.873 374.694 203.125 374.502 194.832L374.496 194.436C374.496 185.963 380.796 179 388.675 179L389.177 179.009Z" fill="#0055E0"/>
<path d="M262.928 209.325H258.562V188.447H262.928V209.325ZM260.744 180.309C262.201 180.309 263.421 181.458 263.421 182.92C263.421 184.382 262.201 185.53 260.744 185.531C259.287 185.531 258.066 184.383 258.066 182.92C258.067 181.457 259.287 180.309 260.744 180.309Z" fill="#0055E0"/>
<path d="M516.173 248.541L506.909 259.371V304H498.641V269.04L495.5 272.712L495.397 272.833H484.453L484.943 272.262L505.701 248.091L505.803 247.971H516.66L516.173 248.541ZM563.414 258.42H553.767V300.201C553.767 302.3 552.07 304 549.977 304H531.027V295.712H545.498V258.42H516.556V250.132H563.414V258.42ZM516.173 225.84L495.5 250.012L495.397 250.132H484.453L484.943 249.562L505.701 225.391L505.803 225.271H516.66L516.173 225.84ZM558.59 234.939H521.38V226.652H558.59V234.939Z" fill="#0055E0"/>
<path d="M277.447 300.201C277.447 302.3 275.75 304 273.657 304H253.329V295.712H269.178V225.271H277.447V300.201ZM254.959 245.041L244.623 284.405L244.556 284.663H236L236.114 284.23L246.45 244.865L246.517 244.608H255.073L254.959 245.041ZM300.175 244.865L310.511 284.23L310.625 284.663H302.069L302.002 284.405L291.666 245.041L291.552 244.608H300.108L300.175 244.865Z" fill="#0055E0"/>
<path d="M380.448 225.271C382.783 225.271 384.563 227.367 384.189 229.677L383.608 233.268L379.759 257.038H387.943C390.035 257.038 391.733 258.739 391.733 260.837V300.201C391.733 302.299 390.035 304 387.943 304H358.657V295.712H383.464V265.326H329.071L329.134 264.926L330.343 257.329L333.198 239.373L333.245 239.083H341.62L341.558 239.483L338.761 257.038H371.385L375.186 233.558H322.825V225.271H380.448ZM375.884 286.044H317.312V277.757H375.884V286.044Z" fill="#0055E0"/>
<path d="M421.462 236.32H430.075C432.169 236.32 433.865 238.021 433.865 240.119V284.663H421.462V304H413.193V284.663H400.789L400.79 284.317V264.635V264.289V236.32H413.193V225.271H421.462V236.32ZM468.593 225.271C470.685 225.271 472.383 226.971 472.383 229.069V233.387L472.242 233.491L449.66 250.132H474.176C476.27 250.132 477.966 251.833 477.966 253.931V300.201C477.966 302.3 476.27 304 474.176 304H459.361V295.712H469.697V258.42H435.244V250.303L435.385 250.2L457.967 233.558H435.244V225.271H468.593ZM453.185 261.455L441.726 299.783L441.651 300.029H433.058L433.191 299.584L444.636 261.256L444.71 261.01H453.317L453.185 261.455ZM465.585 261.455L454.126 299.783L454.051 300.029H445.458L445.591 299.584L457.036 261.256L457.11 261.01H465.717L465.585 261.455ZM409.059 276.375H413.193V264.635H409.059V276.375ZM421.462 276.375H425.596V264.635H421.462V276.375ZM409.059 256.348H413.193V244.608H409.059V256.348ZM421.462 256.348H425.596V244.608H421.462V256.348Z" fill="#0055E0"/>
</g>
</g>
<defs>
<clipPath id="clip0_639_6232">
<rect width="800" height="500" fill="white"/>
</clipPath>
<clipPath id="clip1_639_6232">
<rect width="328" height="125" fill="white" transform="translate(236 179)"/>
</clipPath>
</defs>
</svg>
